<svg width="61" height="87" viewBox="0 0 61 87" fill="none" xmlns="http://www.w3.org/2000/svg">
<path d="M6.328 77.762C6.328 77.4727 6.13667 77.328 5.754 77.328C5.362 77.328 5.026 77.5473 4.746 77.986C4.466 78.4247 4.326 79.1573 4.326 80.184C4.326 81.136 4.48467 81.8313 4.802 82.27C5.12867 82.6993 5.51133 82.914 5.95 82.914C6.09 82.914 6.216 82.886 6.328 82.83C6.44933 82.774 6.54733 82.69 6.622 82.578C6.69667 82.466 6.734 82.3307 6.734 82.172C6.51 82.172 6.314 82.13 6.146 82.046C5.98733 81.962 5.87067 81.8593 5.796 81.738C5.72133 81.6073 5.684 81.4673 5.684 81.318C5.684 80.982 5.77267 80.73 5.95 80.562C6.12733 80.394 6.43067 80.31 6.86 80.31H8.554C9.09533 80.31 9.51533 80.4267 9.814 80.66C10.1127 80.8933 10.262 81.304 10.262 81.892C10.262 82.7507 9.85133 83.502 9.03 84.146C8.20867 84.7807 7.23333 85.098 6.104 85.098C5.068 85.098 4.144 84.9113 3.332 84.538C2.52933 84.1647 1.89 83.6093 1.414 82.872C0.947333 82.1253 0.714 81.2433 0.714 80.226C0.714 78.714 1.17133 77.5193 2.086 76.642C3.00067 75.7647 4.214 75.326 5.726 75.326C6.32333 75.326 6.86 75.3727 7.336 75.466C7.812 75.55 8.204 75.6667 8.512 75.816C8.82933 75.9653 9.09067 76.1473 9.296 76.362C9.51067 76.5673 9.66 76.7867 9.744 77.02C9.83733 77.2533 9.884 77.496 9.884 77.748C9.884 77.9253 9.856 78.098 9.8 78.266C9.744 78.4247 9.64133 78.588 9.492 78.756C9.352 78.9147 9.13267 79.0453 8.834 79.148C8.53533 79.2507 8.176 79.302 7.756 79.302C7.14 79.302 6.748 79.2133 6.58 79.036C6.412 78.8493 6.328 78.4247 6.328 77.762ZM14.1012 85.084C13.3638 85.084 12.7525 84.7853 12.2672 84.188C11.7818 83.5813 11.5392 82.7553 11.5392 81.71C11.5392 80.646 11.7772 79.8013 12.2532 79.176C12.7385 78.5413 13.3545 78.224 14.1012 78.224C14.8572 78.224 15.5572 78.49 16.2012 79.022C16.4532 78.5553 16.8592 78.322 17.4192 78.322C17.9232 78.322 18.3152 78.434 18.5952 78.658C18.8752 78.8727 19.0152 79.274 19.0152 79.862V83.502C19.0152 84.062 18.8985 84.454 18.6652 84.678C18.4318 84.8927 18.0212 85 17.4332 85C16.8172 85 16.4112 84.8273 16.2152 84.482C15.6178 84.8833 14.9132 85.084 14.1012 85.084ZM16.0052 80.366C15.8465 80.0953 15.6412 79.96 15.3892 79.96C15.1465 79.96 14.9505 80.1373 14.8012 80.492C14.6518 80.8467 14.5772 81.2527 14.5772 81.71C14.5772 82.1393 14.6472 82.522 14.7872 82.858C14.9272 83.194 15.1232 83.362 15.3752 83.362C15.6365 83.362 15.8465 83.236 16.0052 82.984V80.366ZM28.6335 81.304C28.6335 80.7813 28.4235 80.52 28.0035 80.52C27.8168 80.52 27.6768 80.6273 27.5835 80.842C27.4902 81.0567 27.4435 81.3273 27.4435 81.654C27.4435 82.1487 27.4342 82.5593 27.4155 82.886C27.4062 83.2127 27.3782 83.5067 27.3315 83.768C27.2848 84.0293 27.2288 84.2347 27.1635 84.384C27.0982 84.5333 27.0095 84.6593 26.8975 84.762C26.7855 84.8553 26.6595 84.9207 26.5195 84.958C26.3795 84.986 26.2022 85 25.9875 85C25.6608 85 25.3948 84.9533 25.1895 84.86C24.9935 84.7667 24.8535 84.636 24.7695 84.468C24.6855 84.3 24.6435 84.09 24.6435 83.838V81.304C24.6435 80.7813 24.4335 80.52 24.0135 80.52C23.8455 80.52 23.7055 80.618 23.5935 80.814C23.4908 81.0007 23.4395 81.248 23.4395 81.556V83.502C23.4395 84.062 23.3228 84.454 23.0895 84.678C22.8562 84.8927 22.4455 85 21.8575 85C21.3068 85 20.9288 84.874 20.7235 84.622C20.5275 84.3607 20.4295 83.936 20.4295 83.348V79.904C20.4295 79.428 20.5555 79.0453 20.8075 78.756C21.0688 78.4667 21.4142 78.322 21.8435 78.322C22.6088 78.322 23.0942 78.5693 23.2995 79.064C23.6542 78.8027 23.9995 78.6207 24.3355 78.518C24.6808 78.4153 25.0822 78.364 25.5395 78.364C26.2302 78.364 26.7295 78.6627 27.0375 79.26C27.0842 79.2227 27.1308 79.1853 27.1775 79.148C27.8962 78.6253 28.7782 78.364 29.8235 78.364C30.4862 78.364 30.9622 78.616 31.2515 79.12C31.5408 79.624 31.6855 80.4687 31.6855 81.654C31.6855 82.1487 31.6762 82.5593 31.6575 82.886C31.6482 83.2127 31.6202 83.5067 31.5735 83.768C31.5268 84.0293 31.4662 84.2347 31.3915 84.384C31.3262 84.5333 31.2282 84.6593 31.0975 84.762C30.9762 84.8553 30.8362 84.9207 30.6775 84.958C30.5282 84.986 30.3368 85 30.1035 85C29.7488 85 29.4595 84.9533 29.2355 84.86C29.0208 84.7667 28.8668 84.636 28.7735 84.468C28.6802 84.3 28.6335 84.09 28.6335 83.838V81.304ZM36.8553 85.084C35.7167 85.084 34.774 84.79 34.0273 84.202C33.29 83.614 32.9213 82.8113 32.9213 81.794C32.9213 80.6927 33.2853 79.8247 34.0133 79.19C34.7507 78.546 35.698 78.224 36.8553 78.224C37.9473 78.224 38.7453 78.42 39.2493 78.812C39.7627 79.1947 40.0193 79.722 40.0193 80.394C40.0193 80.5247 40.0007 80.6507 39.9633 80.772C39.9353 80.8933 39.884 81.0147 39.8093 81.136C39.744 81.248 39.6507 81.3553 39.5293 81.458C39.4173 81.5513 39.2867 81.64 39.1373 81.724C38.988 81.7987 38.8107 81.8593 38.6053 81.906C38.4 81.9433 38.1807 81.962 37.9473 81.962L35.9733 81.976C36.0667 82.2747 36.2347 82.5127 36.4773 82.69C36.72 82.858 37.028 82.942 37.4013 82.942C37.8027 82.942 38.2133 82.8907 38.6333 82.788C38.8107 82.7413 39.002 82.6667 39.2073 82.564C39.422 82.4613 39.576 82.41 39.6693 82.41C39.828 82.41 39.9493 82.4567 40.0333 82.55C40.1267 82.6433 40.1733 82.76 40.1733 82.9C40.1733 83.068 40.0987 83.2733 39.9493 83.516C39.8 83.7493 39.59 83.9873 39.3193 84.23C39.058 84.4633 38.708 84.664 38.2693 84.832C37.8307 85 37.3593 85.084 36.8553 85.084ZM35.9033 81.08C36.5473 81.0707 36.8973 81.066 36.9533 81.066C37.0933 81.066 37.196 80.982 37.2613 80.814C37.308 80.6927 37.3313 80.5247 37.3313 80.31C37.3313 79.722 37.154 79.428 36.7993 79.428C36.6687 79.428 36.538 79.498 36.4073 79.638C36.286 79.778 36.1787 79.9787 36.0853 80.24C35.992 80.492 35.9313 80.772 35.9033 81.08ZM45.8535 81.682C45.8535 81.1967 45.7928 80.772 45.6715 80.408C45.5502 80.0347 45.3728 79.848 45.1395 79.848C44.9808 79.848 44.8408 79.9413 44.7195 80.128C44.5982 80.3147 44.5095 80.5433 44.4535 80.814C44.3975 81.0847 44.3695 81.374 44.3695 81.682C44.3695 82.158 44.4348 82.578 44.5655 82.942C44.6962 83.2967 44.8828 83.474 45.1255 83.474C45.3682 83.474 45.5502 83.2967 45.6715 82.942C45.7928 82.5873 45.8535 82.1673 45.8535 81.682ZM45.1255 85.098C44.3975 85.098 43.7395 84.9673 43.1515 84.706C42.5728 84.4447 42.1062 84.0527 41.7515 83.53C41.4062 83.0073 41.2335 82.396 41.2335 81.696C41.2335 80.632 41.5975 79.7873 42.3255 79.162C43.0535 78.5367 43.9868 78.224 45.1255 78.224C46.2642 78.224 47.1928 78.5367 47.9115 79.162C48.6302 79.7873 48.9895 80.632 48.9895 81.696C48.9895 82.7507 48.6208 83.5813 47.8835 84.188C47.1555 84.7947 46.2362 85.098 45.1255 85.098ZM54.4615 81.234C54.4615 80.7113 54.2562 80.45 53.8455 80.45C53.6495 80.45 53.4862 80.534 53.3555 80.702C53.2342 80.8607 53.1642 81.0753 53.1455 81.346V83.502C53.1455 84.0713 53.0289 84.4633 52.7955 84.678C52.5622 84.8927 52.1515 85 51.5635 85C51.0129 85 50.6349 84.874 50.4295 84.622C50.2335 84.3607 50.1355 83.936 50.1355 83.348V79.904C50.1355 79.428 50.2615 79.0453 50.5135 78.756C50.7749 78.4667 51.1202 78.322 51.5495 78.322C51.9042 78.322 52.2029 78.3733 52.4455 78.476C52.6882 78.5787 52.8702 78.756 52.9915 79.008C53.7195 78.532 54.6062 78.294 55.6515 78.294C56.3142 78.294 56.7902 78.5553 57.0795 79.078C57.3782 79.6007 57.5275 80.4593 57.5275 81.654C57.5275 82.242 57.5135 82.7227 57.4855 83.096C57.4575 83.46 57.4109 83.7773 57.3455 84.048C57.2895 84.3093 57.1962 84.5053 57.0655 84.636C56.9349 84.7667 56.7809 84.86 56.6035 84.916C56.4355 84.972 56.2162 85 55.9455 85C55.4229 85 55.0449 84.902 54.8115 84.706C54.5875 84.51 54.4755 84.2207 54.4755 83.838L54.4615 81.234Z" fill="#C2FFED"/>
<path d="M8.74701 10.3467V10.6761C8.74701 17.3065 8.74701 23.9369 8.74701 30.5698C8.74541 33.6502 9.41021 36.6944 10.6958 39.4936C12.7812 44.1754 16.4321 47.9846 21.021 50.2664C23.4278 51.4958 26.0458 52.2579 28.7363 52.5123C33.0256 52.9266 37.1278 52.2328 40.9629 50.2489C47.2434 46.9924 51.1559 41.8667 52.7404 34.9693C52.8028 34.7198 52.8377 34.4403 52.8901 34.1483H46.8342C45.3945 39.7107 42.0234 43.5362 36.5563 45.3454C34.4429 46.0333 32.209 46.2715 29.998 46.0445C27.7871 45.8176 25.6481 45.1307 23.7184 44.0278L44.9553 22.6293C45.0451 22.774 45.1025 22.8539 45.1499 22.9412C45.7515 24.0199 46.2238 25.1658 46.5572 26.355C46.6221 26.5896 46.7144 26.6595 46.9515 26.657C50.3516 26.657 53.7518 26.657 57.152 26.657C59.0034 26.657 60.538 27.8698 60.8599 29.6515C60.9499 30.3282 60.9649 31.0128 60.9048 31.6928C60.5355 39.1392 57.8082 45.6049 52.6855 51.0175C48.3154 55.712 42.5189 58.8337 36.1945 59.8988C29.7069 61.0368 23.4539 60.1933 17.5876 57.1913C9.40575 53.0089 4.16826 46.401 1.86766 37.4997C1.35082 35.5035 1.06367 33.4547 1.0118 31.3933C0.809684 23.6749 3.2051 16.8623 8.14815 10.9306L8.66716 10.3118L8.74701 10.3467Z" fill="white"/>
<path d="M18.0267 38.2535C14.9726 33.2975 14.758 25.3495 19.8882 19.8421C25.1756 14.1649 33.4897 13.853 39.0116 16.9523C32.0183 24.0494 25.0234 31.1498 18.0267 38.2535Z" fill="white"/>
<path d="M14.2589 15.6071V15.3127C14.2589 12.1384 14.2589 8.9634 14.2589 5.78752C14.252 5.69577 14.2719 5.60398 14.3162 5.52333C14.3605 5.44269 14.4273 5.37668 14.5085 5.33335C18.0305 3.0009 22.0147 1.45677 26.1886 0.806607C27.5884 0.591998 29.0157 0.51963 30.4305 0.43728C31.8701 0.354268 33.3144 0.430424 34.7373 0.664366C36.8108 1.00874 38.1533 2.86535 37.9137 4.9765C37.7895 5.94822 37.2998 6.83612 36.5442 7.45961C35.7887 8.0831 34.824 8.39536 33.8465 8.33288C32.8284 8.27799 31.8104 8.15321 30.7923 8.16818C25.0916 8.24804 20.1285 10.212 15.9033 14.0599C15.6263 14.3095 15.3643 14.5815 15.0948 14.8385C14.8253 15.0956 14.5534 15.3326 14.2589 15.6071Z" fill="white"/>
<path d="M41.9761 19.3703C41.9761 19.288 42.0335 19.1782 42.001 19.1332C41.8984 19.0101 41.7858 18.8958 41.6642 18.7914C41.5095 18.9436 41.3623 19.0908 41.2101 19.2331C41.1849 19.2652 41.1527 19.2912 41.1159 19.3091C41.0792 19.327 41.0388 19.3363 40.998 19.3363C40.9571 19.3363 40.9168 19.327 40.88 19.3091C40.8433 19.2912 40.8111 19.2652 40.7859 19.2331C40.753 19.2029 40.7268 19.1663 40.7089 19.1255C40.691 19.0847 40.6817 19.0406 40.6817 18.996C40.6817 18.9514 40.691 18.9073 40.7089 18.8665C40.7268 18.8257 40.753 18.7891 40.7859 18.7589C40.9106 18.6142 41.0354 18.4744 41.1926 18.3097L40.464 17.6534C40.1695 17.9454 39.8851 18.2249 39.6056 18.5094L31.6583 26.5822C29.4426 28.8297 27.226 31.0756 25.0085 33.3199L19.1971 39.1942C18.8927 39.5036 18.8852 39.5685 19.1373 39.9203C19.2396 40.0626 19.3444 40.1998 19.5165 40.4344C19.6413 40.2622 19.7386 40.105 19.8584 39.9678C19.8832 39.9291 19.9174 39.8974 19.9577 39.8753C19.998 39.8533 20.0432 39.8418 20.0892 39.8418C20.1351 39.8418 20.1803 39.8533 20.2206 39.8753C20.261 39.8974 20.2951 39.9291 20.32 39.9678C20.351 39.9996 20.3748 40.0377 20.3898 40.0795C20.4048 40.1214 20.4106 40.1659 20.4068 40.2102C20.403 40.2545 20.3897 40.2974 20.3679 40.3361C20.346 40.3748 20.316 40.4083 20.2801 40.4344C20.1378 40.5742 20.0131 40.7314 19.8559 40.906C20.0555 41.0358 20.053 41.3677 20.3549 41.3502C20.854 40.8212 21.353 40.2822 21.8521 39.7656C22.3511 39.2491 22.915 38.7525 23.4315 38.2284C23.9056 37.7518 24.3473 37.2302 24.8214 36.7586C25.6598 35.9126 26.5231 35.0892 27.3615 34.2432C28.1999 33.3972 29.0733 32.4789 29.9341 31.598C30.246 31.2811 30.5779 30.9841 30.8898 30.6647C31.4961 30.0334 32.095 29.3945 32.6963 28.7607C32.8435 28.6135 32.9883 28.4637 33.1405 28.3215C33.2927 28.1793 33.4848 28.017 33.6595 27.8648L35.8229 25.5915C36.1547 25.2546 36.4866 24.9152 36.8209 24.5933C36.8944 24.532 36.9729 24.4769 37.0555 24.4286L38.9494 22.4322C39.3835 21.993 39.8177 21.5488 40.2544 21.1121C40.3322 21.0436 40.4157 20.9819 40.5039 20.9275L41.9761 19.3703ZM26.2137 33.6318C26.3011 33.7117 26.4258 33.779 26.4632 33.8814C26.4763 33.9362 26.4777 33.9932 26.4674 34.0486C26.457 34.1041 26.4352 34.1568 26.4034 34.2033C26.2667 34.3732 26.1165 34.5318 25.9542 34.6774C25.827 34.7997 25.6847 34.8671 25.535 34.7098C25.4999 34.6785 25.4717 34.64 25.4525 34.597C25.4332 34.554 25.4232 34.5074 25.4232 34.4603C25.4232 34.4132 25.4332 34.3666 25.4525 34.3236C25.4717 34.2806 25.4999 34.2421 25.535 34.2108C25.6797 34.0485 25.8344 33.8963 25.9941 33.7466C26.0629 33.7004 26.1366 33.6619 26.2137 33.6318ZM36.3868 24.0094C36.297 23.927 36.1822 23.8646 36.1373 23.7598C36.1243 23.7047 36.1227 23.6475 36.1325 23.5917C36.1424 23.5359 36.1635 23.4827 36.1946 23.4354C36.3479 23.2526 36.5147 23.0816 36.6937 22.9238C36.7192 22.8944 36.7512 22.8714 36.7871 22.8566C36.8231 22.8418 36.862 22.8356 36.9008 22.8385C36.9396 22.8414 36.9772 22.8534 37.0105 22.8734C37.0439 22.8934 37.0721 22.9209 37.0929 22.9538C37.1241 22.9823 37.149 23.017 37.166 23.0557C37.183 23.0943 37.1918 23.1361 37.1918 23.1784C37.1918 23.2206 37.183 23.2624 37.166 23.3011C37.149 23.3397 37.1241 23.3744 37.0929 23.403C36.9432 23.5627 36.791 23.7174 36.6313 23.8671C36.5562 23.9235 36.475 23.9712 36.3893 24.0094H36.3868ZM39.144 20.5931C39.1665 20.4958 39.1615 20.4334 39.1864 20.4059C39.3882 20.1882 39.6041 19.9839 39.8327 19.7945C39.8876 19.7521 40.0822 19.8245 40.1421 19.9043C40.1709 19.9621 40.1859 20.0257 40.1859 20.0902C40.1859 20.1548 40.1709 20.2184 40.1421 20.2762C39.9875 20.479 39.8081 20.6618 39.6081 20.8202C39.5635 20.8436 39.5138 20.8558 39.4634 20.8558C39.413 20.8558 39.3633 20.8436 39.3187 20.8202C39.2438 20.7827 39.1889 20.6605 39.1465 20.5931H39.144ZM35.3862 24.3612C35.471 24.4461 35.5908 24.5109 35.6182 24.6108C35.6339 24.6695 35.6373 24.7308 35.6283 24.7909C35.6193 24.851 35.598 24.9086 35.5658 24.9601C35.4064 25.1312 35.2355 25.2913 35.0543 25.4392C35.0295 25.4682 34.9984 25.491 34.9634 25.5061C34.9284 25.5211 34.8904 25.5279 34.8523 25.526C34.8142 25.5241 34.7771 25.5135 34.7438 25.495C34.7105 25.4765 34.6818 25.4506 34.6601 25.4193C34.6293 25.3908 34.6048 25.3562 34.588 25.3178C34.5712 25.2794 34.5625 25.2379 34.5625 25.1959C34.5625 25.154 34.5712 25.1125 34.588 25.0741C34.6048 25.0356 34.6293 25.0011 34.6601 24.9726C34.8098 24.8154 34.9595 24.6582 35.1192 24.5109C35.2041 24.4526 35.2943 24.4025 35.3887 24.3612H35.3862ZM32.609 27.79C32.5813 27.8872 32.5393 27.9797 32.4842 28.0645C32.342 28.2292 32.1848 28.3814 32.0276 28.5336C32.0029 28.564 31.9714 28.5881 31.9356 28.604C31.8998 28.62 31.8608 28.6273 31.8217 28.6253C31.7826 28.6234 31.7445 28.6123 31.7105 28.5929C31.6764 28.5735 31.6475 28.5463 31.6259 28.5136C31.5949 28.4882 31.5695 28.4568 31.5512 28.4212C31.5328 28.3856 31.5219 28.3467 31.5191 28.3067C31.5163 28.2668 31.5216 28.2267 31.5349 28.1889C31.5481 28.1511 31.5689 28.1164 31.5959 28.0869C31.758 27.8903 31.9394 27.7106 32.1374 27.5504C32.1868 27.5265 32.241 27.5141 32.2958 27.5141C32.3507 27.5141 32.4049 27.5265 32.4543 27.5504C32.5267 27.5903 32.5616 27.7101 32.6115 27.79H32.609ZM28.4769 31.4208C28.4944 31.3335 28.4894 31.2836 28.5093 31.2611C28.7077 31.0271 28.922 30.8069 29.1506 30.6023C29.2005 30.5574 29.4001 30.6497 29.4825 30.7371C29.5108 30.7856 29.5268 30.8403 29.529 30.8965C29.5312 30.9526 29.5195 31.0084 29.495 31.059C29.3261 31.2736 29.1354 31.4701 28.926 31.6454C28.8816 31.6695 28.8318 31.682 28.7813 31.682C28.7308 31.682 28.6811 31.6695 28.6366 31.6454C28.5567 31.6055 28.5168 31.4832 28.4769 31.4208ZM20.8515 39.1567C20.8664 39.0669 20.8515 39.017 20.8789 38.997C21.0892 38.7634 21.3125 38.5418 21.5476 38.3332C21.5951 38.2933 21.7972 38.3782 21.8521 38.4605C21.8811 38.5191 21.8962 38.5835 21.8962 38.6489C21.8962 38.7143 21.8811 38.7788 21.8521 38.8373C21.7029 39.0327 21.5284 39.2072 21.3331 39.3564C21.2908 39.3842 21.2425 39.4016 21.1922 39.4072C21.1419 39.4128 21.091 39.4065 21.0436 39.3888C20.9538 39.3464 20.9014 39.2241 20.8515 39.1567ZM27.7533 32.0946C27.8406 32.1795 27.9679 32.2468 28.0028 32.3442C28.0164 32.4035 28.0174 32.465 28.0058 32.5247C27.9942 32.5844 27.9702 32.6411 27.9354 32.691C27.7892 32.8535 27.6307 33.0045 27.4613 33.1427C27.3216 33.275 27.1769 33.3074 27.0471 33.1427C27.016 33.1108 26.9918 33.0729 26.976 33.0313C26.9602 32.9897 26.9531 32.9452 26.9552 32.9007C26.9573 32.8563 26.9686 32.8127 26.9883 32.7728C27.0079 32.7328 27.0356 32.6973 27.0696 32.6686C27.2268 32.5163 27.3815 32.3591 27.5412 32.2119C27.6075 32.166 27.6786 32.1275 27.7533 32.0971V32.0946ZM24.9936 35.5284C24.9611 35.6257 24.9561 35.6931 24.9237 35.7255C24.7339 35.9321 24.5287 36.1239 24.3099 36.2994C24.2549 36.3157 24.1966 36.3166 24.1412 36.302C24.0858 36.2875 24.0354 36.2582 23.9955 36.2171C23.9628 36.1614 23.9432 36.099 23.938 36.0346C23.9328 35.9702 23.9422 35.9055 23.9655 35.8453C24.1273 35.6377 24.3124 35.4493 24.517 35.2838C24.5614 35.2598 24.6112 35.2472 24.6617 35.2472C24.7122 35.2472 24.762 35.2598 24.8064 35.2838C24.8937 35.3287 24.9387 35.4535 24.9936 35.5308V35.5284ZM23.4964 37.078C23.4516 37.1647 23.4008 37.2481 23.3442 37.3276C23.1895 37.4923 23.0223 37.6445 22.8651 37.8092C22.8447 37.839 22.8174 37.8635 22.7854 37.8803C22.7535 37.8972 22.7179 37.906 22.6817 37.906C22.6456 37.906 22.61 37.8972 22.578 37.8803C22.5461 37.8635 22.5187 37.839 22.4983 37.8092C22.4648 37.784 22.4368 37.752 22.4163 37.7154C22.3957 37.6788 22.3831 37.6383 22.3791 37.5965C22.3751 37.5547 22.3799 37.5125 22.3931 37.4726C22.4063 37.4328 22.4277 37.3961 22.4559 37.365C22.6245 37.1769 22.8054 37.0001 22.9974 36.836C23.0342 36.8127 23.076 36.7985 23.1194 36.7946C23.1628 36.7907 23.2065 36.7972 23.2469 36.8135C23.3432 36.8893 23.4273 36.9793 23.4964 37.0805V37.078ZM30.8124 28.9978C30.8898 29.0751 31.017 29.145 31.0345 29.2473C31.0479 29.3123 31.0482 29.3794 31.0353 29.4445C31.0224 29.5096 30.9967 29.5715 30.9597 29.6266C30.8092 29.7998 30.642 29.9578 30.4606 30.0983C30.4347 30.1222 30.4039 30.1404 30.3704 30.1516C30.3369 30.1628 30.3014 30.1668 30.2663 30.1632C30.2311 30.1597 30.1971 30.1488 30.1666 30.1311C30.136 30.1134 30.1095 30.0895 30.0888 30.0608C30.0578 30.0362 30.0323 30.0053 30.014 29.9701C29.9958 29.9349 29.9851 29.8963 29.9827 29.8568C29.9804 29.8172 29.9864 29.7776 30.0004 29.7405C30.0143 29.7035 30.036 29.6697 30.0639 29.6416C30.231 29.4619 30.4032 29.2922 30.5804 29.1225C30.6528 29.0731 30.7307 29.032 30.8124 29.0003V28.9978ZM37.8839 22.4497C37.8141 22.3773 37.6993 22.31 37.6693 22.2151C37.6544 22.16 37.6507 22.1025 37.6584 22.0459C37.6661 21.9893 37.6851 21.9348 37.7142 21.8857C37.8706 21.7096 38.0372 21.543 38.2133 21.3866C38.2383 21.3578 38.2695 21.3351 38.3047 21.3203C38.3398 21.3055 38.3779 21.2989 38.4159 21.3011C38.454 21.3032 38.4911 21.3141 38.5243 21.3328C38.5575 21.3515 38.586 21.3776 38.6075 21.4091C38.6396 21.4363 38.6654 21.4701 38.683 21.5082C38.7007 21.5464 38.7099 21.5879 38.7099 21.6299C38.7099 21.672 38.7007 21.7135 38.683 21.7516C38.6654 21.7898 38.6396 21.8236 38.6075 21.8508C38.4279 22.028 38.2432 22.2051 38.0561 22.3748C38.0027 22.4088 37.9447 22.4349 37.8839 22.4522V22.4497ZM33.8915 25.9433C33.9614 26.0082 34.0737 26.0656 34.0987 26.1505C34.1304 26.2606 34.1179 26.3788 34.0637 26.4798C33.9165 26.6553 33.759 26.822 33.5921 26.9789C33.4674 27.1087 33.3426 27.1511 33.1979 27.0114C33.1673 26.9822 33.143 26.9472 33.1263 26.9084C33.1097 26.8696 33.1011 26.8278 33.1011 26.7855C33.1011 26.7433 33.1097 26.7015 33.1263 26.6627C33.143 26.6239 33.1673 26.5888 33.1979 26.5597C33.3551 26.38 33.5223 26.2128 33.6969 26.0481C33.7541 26.0012 33.8169 25.9618 33.8841 25.9309L33.8915 25.9433Z" fill="white"/>
<path d="M39.5105 17.1395C39.6203 17.2019 39.6628 17.2218 39.7027 17.2468L40.0021 17.4464L18.6604 39.1119C18.3186 38.79 18.3161 38.7151 18.6005 38.4257C21.0741 35.9186 23.5469 33.4173 26.0188 30.9218C28.1814 28.7358 30.3364 26.5481 32.484 24.3588C34.7646 22.0464 37.0444 19.7322 39.3234 17.4165C39.3929 17.3291 39.4555 17.2365 39.5105 17.1395Z" fill="white"/>
<path d="M22.8676 43.4139L44.3265 21.6661L44.6085 22.0928L43.568 23.1509L37.5171 29.2997L34.4005 32.4489C31.6874 35.1922 28.9759 37.9372 26.2661 40.6839C25.3603 41.5997 24.462 42.523 23.5587 43.4439C23.2493 43.7508 23.2493 43.7508 22.8676 43.4139Z" fill="white"/>
<path d="M20.6294 41.5174C20.6294 41.5972 20.572 41.7095 20.6044 41.7545C20.7089 41.8768 20.8232 41.9903 20.9463 42.0938C21.1035 41.9416 21.2507 41.7944 21.4054 41.6521C21.4311 41.6199 21.4637 41.5939 21.5009 41.576C21.538 41.5581 21.5787 41.5488 21.62 41.5488C21.6612 41.5488 21.7019 41.5581 21.7391 41.576C21.7762 41.5939 21.8089 41.6199 21.8346 41.6521C21.8677 41.6819 21.8941 41.7182 21.9123 41.7589C21.9304 41.7995 21.9397 41.8435 21.9397 41.888C21.9397 41.9325 21.9304 41.9764 21.9123 42.0171C21.8941 42.0577 21.8677 42.0941 21.8346 42.1238C21.7073 42.2685 21.585 42.4083 21.4253 42.573L22.1739 43.2293C22.4708 42.9348 22.7603 42.6578 23.0423 42.3733C25.7221 39.6866 28.402 36.9981 31.0819 34.308C33.3226 32.0621 35.5641 29.8162 37.8065 27.5703L43.6803 21.6886C43.9897 21.3791 43.9972 21.3142 43.7427 20.9624C43.6404 20.8226 43.5331 20.6829 43.3584 20.4508C43.2312 20.6205 43.1338 20.7802 43.0116 20.915C42.9861 20.9536 42.9515 20.9853 42.9108 21.0072C42.87 21.0291 42.8245 21.0406 42.7783 21.0406C42.732 21.0406 42.6865 21.0291 42.6458 21.0072C42.6051 20.9853 42.5704 20.9536 42.545 20.915C42.5132 20.8838 42.4887 20.846 42.4732 20.8042C42.4577 20.7625 42.4517 20.7178 42.4555 20.6735C42.4593 20.6291 42.4729 20.5862 42.4953 20.5477C42.5176 20.5092 42.5482 20.4761 42.5849 20.4508C42.7271 20.3111 42.8569 20.1538 43.0141 19.9792C42.812 19.8494 42.8144 19.52 42.515 19.535C42.016 20.064 41.5169 20.603 40.9954 21.1196C40.4739 21.6361 39.92 22.1178 39.396 22.6543C38.9169 23.1309 38.4703 23.6525 37.9912 24.1241C37.1403 24.9701 36.2695 25.7911 35.4211 26.637C34.5727 27.483 33.6894 28.3988 32.8186 29.2772C32.5042 29.5966 32.1673 29.8911 31.8529 30.213C31.2391 30.8394 30.6327 31.4782 30.0239 32.1145C29.8742 32.2593 29.7295 32.4115 29.5748 32.5512C29.4201 32.691 29.2254 32.8557 29.0508 33.0079C28.3222 33.7632 27.5927 34.5202 26.8625 35.2788C26.5256 35.6157 26.1912 35.955 25.8644 36.2769C25.7866 36.3389 25.703 36.3932 25.6148 36.4391L23.701 38.4355C23.2618 38.878 22.8218 39.3189 22.381 39.7581C22.3028 39.8254 22.2194 39.8863 22.1315 39.9403L20.6294 41.5174ZM36.5714 27.2684C36.4816 27.1885 36.3568 27.1211 36.3219 27.0188C36.3083 26.9637 36.3064 26.9064 36.3162 26.8506C36.3261 26.7947 36.3476 26.7415 36.3793 26.6944C36.5192 26.5258 36.6719 26.3681 36.8359 26.2228C36.9656 26.1005 37.1079 26.0306 37.2601 26.1903C37.2963 26.221 37.3255 26.2593 37.3455 26.3023C37.3654 26.3454 37.3758 26.3924 37.3758 26.4399C37.3758 26.4874 37.3654 26.5343 37.3455 26.5774C37.3255 26.6205 37.2963 26.6587 37.2601 26.6894C37.1153 26.8516 36.9557 27.0039 36.796 27.1511C36.7256 27.1983 36.6503 27.2376 36.5714 27.2684ZM26.2811 36.8808C26.3709 36.9657 26.4882 37.0256 26.5306 37.1304C26.5486 37.1845 26.555 37.2418 26.5494 37.2985C26.5438 37.3553 26.5263 37.4102 26.4981 37.4598C26.3443 37.6382 26.1775 37.805 25.9991 37.9589C25.9739 37.9894 25.9417 38.0134 25.9054 38.0291C25.869 38.0447 25.8294 38.0514 25.79 38.0488C25.7505 38.0461 25.7122 38.034 25.6783 38.0136C25.6443 37.9932 25.6158 37.9651 25.5949 37.9314C25.563 37.9033 25.5375 37.8688 25.52 37.83C25.5025 37.7913 25.4935 37.7493 25.4935 37.7068C25.4935 37.6644 25.5025 37.6224 25.52 37.5836C25.5375 37.5449 25.563 37.5103 25.5949 37.4822C25.7446 37.3225 25.9018 37.1678 26.0615 37.0181C26.1299 36.9651 26.2035 36.9191 26.2811 36.8808ZM23.4939 40.2946C23.4714 40.3919 23.4764 40.4543 23.449 40.4818C23.244 40.699 23.0256 40.9032 22.7952 41.0932C22.7403 41.1356 22.5332 41.0632 22.4833 40.9834C22.4531 40.9264 22.4363 40.8633 22.4342 40.7989C22.432 40.7345 22.4445 40.6704 22.4708 40.6115C22.6281 40.4085 22.81 40.2258 23.0123 40.0675C23.0568 40.0422 23.1068 40.0278 23.158 40.0256C23.2092 40.0234 23.2602 40.0335 23.3067 40.0551C23.3941 40.105 23.444 40.2272 23.4939 40.2946ZM27.2941 36.529C27.2068 36.4441 27.0845 36.3818 27.0596 36.2794C27.0428 36.221 27.0386 36.1596 27.0472 36.0994C27.0558 36.0392 27.077 35.9815 27.1095 35.9301C27.2715 35.7589 27.4449 35.5988 27.6285 35.451C27.6532 35.4211 27.6846 35.3974 27.7201 35.3817C27.7557 35.3661 27.7943 35.359 27.8331 35.3609C27.8719 35.3628 27.9096 35.3738 27.9434 35.3929C27.9772 35.412 28.0061 35.4387 28.0277 35.4709C28.0582 35.4996 28.0824 35.5342 28.099 35.5726C28.1156 35.611 28.1241 35.6524 28.1241 35.6943C28.1241 35.7361 28.1156 35.7775 28.099 35.8159C28.0824 35.8543 28.0582 35.8889 28.0277 35.9176C27.8755 36.0748 27.7208 36.232 27.5611 36.3768C27.478 36.4372 27.3885 36.4882 27.2941 36.529ZM30.1013 33.1052C30.1307 33.0083 30.1735 32.9159 30.2285 32.8307C30.3732 32.666 30.5329 32.5138 30.6901 32.3616C30.7166 32.3333 30.7489 32.3111 30.7848 32.2966C30.8208 32.282 30.8594 32.2755 30.8981 32.2774C30.9368 32.2793 30.9746 32.2896 31.009 32.3076C31.0433 32.3256 31.0733 32.3508 31.0969 32.3816C31.128 32.4065 31.1537 32.4377 31.1723 32.4731C31.1908 32.5084 31.2018 32.5473 31.2046 32.5871C31.2075 32.627 31.202 32.667 31.1886 32.7046C31.1752 32.7422 31.1542 32.7767 31.1268 32.8058C30.963 33.0024 30.78 33.1822 30.5803 33.3423C30.5304 33.3657 30.4758 33.3778 30.4206 33.3778C30.3655 33.3778 30.3109 33.3657 30.261 33.3423C30.1886 33.3049 30.1537 33.1851 30.1013 33.1052ZM34.2833 29.4744C34.2683 29.5617 34.2833 29.6116 34.2508 29.6341C34.0507 29.8682 33.8348 30.0883 33.6046 30.2929C33.5522 30.3353 33.355 30.243 33.2677 30.1581C33.2389 30.1098 33.2225 30.0552 33.2199 29.999C33.2173 29.9429 33.2286 29.8869 33.2527 29.8362C33.4236 29.6216 33.6168 29.4259 33.8291 29.2523C33.8747 29.2288 33.9251 29.2166 33.9763 29.2166C34.0276 29.2166 34.078 29.2288 34.1236 29.2523C34.1984 29.2922 34.2433 29.4244 34.2833 29.4744ZM41.9985 21.7385C41.9835 21.8283 41.9985 21.8782 41.9686 21.8982C41.757 22.1323 41.5311 22.3531 41.2924 22.5595C41.2449 22.5994 41.0428 22.517 40.983 22.4347C40.9552 22.3758 40.9408 22.3114 40.9408 22.2463C40.9408 22.1811 40.9552 22.1168 40.983 22.0579C41.1354 21.863 41.3124 21.6885 41.5094 21.5388C41.5522 21.511 41.6009 21.4936 41.6516 21.488C41.7023 21.4823 41.7536 21.4886 41.8014 21.5064C41.8937 21.5588 41.9486 21.6885 41.9985 21.7459V21.7385ZM35.0119 28.7931C34.9245 28.7082 34.7948 28.6409 34.7623 28.5435C34.7484 28.484 34.7469 28.4222 34.7581 28.3621C34.7693 28.3019 34.7928 28.2448 34.8272 28.1942C34.9798 28.0359 35.1423 27.8876 35.3138 27.75C35.456 27.6202 35.6007 27.5878 35.733 27.75C35.7644 27.7817 35.7889 27.8196 35.805 27.8612C35.821 27.9029 35.8282 27.9474 35.8261 27.992C35.8239 28.0366 35.8126 28.0803 35.7927 28.1202C35.7728 28.1602 35.7448 28.1956 35.7105 28.2241C35.5508 28.3764 35.3961 28.5311 35.2339 28.6783C35.1666 28.7274 35.0937 28.7684 35.0169 28.8006L35.0119 28.7931ZM37.8015 25.3643C37.8365 25.267 37.839 25.1996 37.8739 25.1672C38.0654 24.9606 38.2723 24.7687 38.4927 24.5933C38.5484 24.5769 38.6075 24.5759 38.6638 24.5904C38.72 24.6049 38.7712 24.6343 38.8121 24.6756C38.8458 24.7305 38.8661 24.7925 38.8713 24.8567C38.8765 24.9209 38.8665 24.9854 38.842 25.0449C38.6802 25.255 38.4924 25.4436 38.2831 25.6064C38.2382 25.6304 38.1881 25.643 38.1371 25.643C38.0862 25.643 38.0361 25.6304 37.9912 25.6064C37.9088 25.574 37.8614 25.4492 37.8065 25.3718L37.8015 25.3643ZM39.3186 23.8147C39.3606 23.7264 39.4116 23.6428 39.4708 23.5651C39.628 23.4004 39.7952 23.2457 39.9549 23.0835C39.9759 23.0536 40.0037 23.0293 40.036 23.0124C40.0684 22.9956 40.1043 22.9868 40.1408 22.9868C40.1773 22.9868 40.2132 22.9956 40.2456 23.0124C40.2779 23.0293 40.3058 23.0536 40.3267 23.0835C40.3607 23.1081 40.3891 23.1395 40.4101 23.1759C40.4311 23.2122 40.4441 23.2525 40.4484 23.2943C40.4526 23.336 40.448 23.3782 40.4347 23.418C40.4215 23.4578 40.4 23.4943 40.3716 23.5252C40.2015 23.7153 40.0172 23.8922 39.8202 24.0542C39.7835 24.0777 39.7418 24.0922 39.6984 24.0966C39.655 24.1009 39.6113 24.095 39.5707 24.0792C39.4757 24.0066 39.3924 23.92 39.3236 23.8222L39.3186 23.8147ZM31.9228 31.8949C31.8454 31.8176 31.7157 31.7477 31.6957 31.6454C31.6724 31.5137 31.7001 31.3781 31.7731 31.2661C31.925 31.095 32.092 30.938 32.2721 30.7969C32.2979 30.772 32.3289 30.7529 32.3628 30.741C32.3967 30.7291 32.4327 30.7246 32.4685 30.7279C32.5043 30.7312 32.5389 30.7423 32.5701 30.7602C32.6012 30.7781 32.6281 30.8026 32.6489 30.8319C32.7662 30.9641 32.8111 31.1089 32.6763 31.2511C32.5416 31.3934 32.332 31.603 32.1523 31.7702C32.0803 31.8195 32.0034 31.8613 31.9228 31.8949ZM24.7714 38.4355C24.8413 38.5079 24.9561 38.5753 24.986 38.6726C25.0021 38.7271 25.0064 38.7845 24.9987 38.8409C24.9909 38.8972 24.9713 38.9513 24.9411 38.9995C24.7853 39.1761 24.6187 39.3428 24.4421 39.4986C24.4173 39.5285 24.3859 39.5522 24.3504 39.5678C24.3149 39.5834 24.2762 39.5906 24.2375 39.5886C24.1987 39.5867 24.1609 39.5757 24.1271 39.5566C24.0934 39.5375 24.0645 39.5108 24.0428 39.4786C24.0104 39.4517 23.9843 39.4179 23.9663 39.3798C23.9484 39.3416 23.9391 39.2999 23.9391 39.2578C23.9391 39.2156 23.9484 39.1739 23.9663 39.1358C23.9843 39.0976 24.0104 39.0638 24.0428 39.0369C24.225 38.8572 24.4096 38.6826 24.5993 38.5104C24.6538 38.4792 24.7115 38.4541 24.7714 38.4355ZM28.8162 34.9569C28.7438 34.892 28.6316 34.8346 28.6066 34.7497C28.5901 34.6957 28.5847 34.6389 28.5907 34.5827C28.5967 34.5265 28.614 34.4722 28.6415 34.4228C28.7892 34.2461 28.9484 34.0794 29.1181 33.9237C29.2429 33.794 29.3826 33.7491 29.5174 33.8913C29.5482 33.92 29.5728 33.9548 29.5896 33.9934C29.6064 34.0321 29.6151 34.0737 29.6151 34.1159C29.6151 34.158 29.6064 34.1997 29.5896 34.2384C29.5728 34.277 29.5482 34.3118 29.5174 34.3405C29.3577 34.5201 29.188 34.6873 29.0183 34.852C28.9557 34.8954 28.8878 34.9306 28.8162 34.9569Z" fill="white"/>
</svg>
